{"title":"Goonj 1989 X264 AAC 1CDRip [RRG DBB][DADA] ClassiC","uid":8181415,"size":962968007,"categoryP":"video","categoryS":"movies","magnet":"?xt=urn:btih:983f89f8f9194eb80702083886fc94c789fa2100&amp;dn=Goonj+1989+X264+AAC+1CDRip+%5BRRG+DBB%5D%5BDADA%5D+ClassiC&amp;tr=udp%3A%2F%2Ftracker.openbittorrent.com%3A80&amp;tr=udp%3A%2F%2Fopen.demonii.com%3A1337&amp;tr=udp%3A%2F%2Ftracker.coppersurfer.tk%3A6969&amp;tr=udp%3A%2F%2Fexodus.desync.com%3A6969","seeders":0,"leechers":2,"uploader":"brego45","files":1,"time":1361634205,"description":"\nCover \n\n\n\nScreens\n\n\n\n\nGeneral\n\nFormat                                   : MP4 Video\nFile size                                : 918 MiB\nDuration                                 : 2h 14mn\nOverall bit rate                         : 951 Kbps\n\n\nVideo\nFormat                                   : AVC\nFormat/Info                              : Advanced Video Codec\nFormat profile                           : &lt;a class=&quot;__cf_email__&quot; href=&quot;/cdn-cgi/l/email-protection&quot; data-cfemail=&quot;420f232b2c020e716c72&quot;&gt;[email&amp;#160;protected]&lt;/a&gt;&lt;script cf-hash='f9e31' type=&quot;text/javascript&quot;&gt;\n/* &lt;![CDATA[ */!function(){try{var t=&quot;currentScript&quot;in document?document.currentScript:function(){for(var t=document.getElementsByTagName(&quot;script&quot;),e=t.length;e--;)if(t[e].getAttribute(&quot;cf-hash&quot;))return t[e]}();if(t&amp;&amp;t.previousSibling){var e,r,n,i,c=t.previousSibling,a=c.getAttribute(&quot;data-cfemail&quot;);if(a){for(e=&quot;&quot;,r=parseInt(a.substr(0,2),16),n=2;a.length-n;n+=2)i=parseInt(a.substr(n,2),16)^r,e+=String.fromCharCode(i);e=document.createTextNode(e),c.parentNode.replaceChild(e,c)}}}catch(u){}}();/* ]]&gt; */&lt;/script&gt;\nFormat settings, CABAC                   : Yes\nFormat settings, ReFrames                : 3 frames\nCodec ID                                 : 7\nDuration                                 : 2h 14mn\nBit rate                                 : 814 Kbps\nWidth                                    : 854 pixels\nHeight                                   : 480 pixels\nDisplay aspect ratio                     : 16:9\nFrame rate mode                          : Constant\nFrame rate                               : 25.000 fps\nColor space                              : YUV\nChroma subsampling                       : 4:2:0\nBit depth                                : 8 bits\nScan type                                : Progressive\nBits/(Pixel*Frame)                       : 0.079\nStream size                              : 786 MiB (86%)\n\nAudio\nFormat                                   : AAC\nFormat/Info                              : Advanced Audio Codec\nFormat profile                           : LC\nCodec ID                                 : 10\nDuration                                 : 2h 14mn\nBit rate                                 : 129 Kbps\nChannel(s)                               : 2 channels\nChannel positions                        : Front: L R\nSampling rate                            : 44.1 KHz\nCompression mode                         : Lossy\nStream size                              : 124 MiB (14%)\n\n\n &lt;a href=&quot;\nhttp://www.imdb.com/title/tt0172509/&quot; rel=&quot;nofollow&quot; target=&quot;_NEW&quot;&gt;\nhttp://www.imdb.com/title/tt0172509/&lt;/a&gt;\n\nGenres:\nDrama, Action &amp; Adventure, Music\nLanguage:\nHindi\nRunning time:\n2:14:59\nPartner rating: \nGREEN\nReleased:\nMar 7, 1989\n\nCast &amp; Crew\n\nKumar Gaurav\nJuhi Chawla\nTinnu Anand\n\nDirectors\n\nJalal Agha\n\nProducers\n\nJoy Augustine\n\nWriters\n\nJalal Agha\nPolitical activity heats up in the coastal city of Goa, India, when it gets near election time. Two candidates, one, MLA Kalekar, representing the majority of the local-speaking population, and the other, Dennis Pereira, for the local minority-speaking population, are out to prove under who the city will be best represented. And they will not leave any stone unturned to succeed. Some local college students, including Peter, who loves his class-mate Sangeeta Kalekar; their friend, Sanjeev Kamat, who secretly loves Sangeeta. Sangeeta is the daughter of local MLA Kalekar. Sanjeev comes to know that Kalekar is behind local killings, rioting, and drug supplies, and threatens to expose him, but he must himself clear himself for the murder of Peter, the man his sweetheart intends to marry. \n","torrent":{"xt":"urn:btih:983f89f8f9194eb80702083886fc94c789fa2100","amp;dn":"Goonj+1989+X264+AAC+1CDRip+%5BRRG+DBB%5D%5BDADA%5D+ClassiC","amp;tr":["udp%3A%2F%2Ftracker.openbittorrent.com%3A80","udp%3A%2F%2Fopen.demonii.com%3A1337","udp%3A%2F%2Ftracker.coppersurfer.tk%3A6969","udp%3A%2F%2Fexodus.desync.com%3A6969"],"infoHash":"983f89f8f9194eb80702083886fc94c789fa2100","infoHashBuffer":{"type":"Buffer","data":[152,63,137,248,249,25,78,184,7,2,8,56,134,252,148,199,137,250,33,0]},"announce":[],"urlList":[]}}